<svg id="Logo" xmlns="http://www.w3.org/2000/svg" viewBox="0 0 584.87 307.41"><defs><style>.cls-1{fill:#170f5f;}</style></defs><path id="Wordmark" class="cls-1" d="M471.25,115.14c0-14.91,10.83-26.55,27-26.55a29.65,29.65,0,0,1,13.68,3.27v11.23h-.3a23.7,23.7,0,0,0-12.46-3.47c-9.71,0-14.91,6.64-14.91,15.52s5.2,15.53,14.91,15.53a23.71,23.71,0,0,0,12.46-3.48h.3v11.24a29.77,29.77,0,0,1-13.68,3.27c-16.14,0-27-11.65-27-26.56M470,140.68a32.14,32.14,0,0,1-6.23.71c-9.7,0-14.91-5.11-14.91-14.5V89.61h12.76V126c0,3.37,1.64,5,5.11,5a17.61,17.61,0,0,0,3-.3h.3Zm-7-63.53a7.51,7.51,0,1,1-7.55-7.45A7.45,7.45,0,0,1,463,77.15m-57,35c0-7.86,4-13,11.34-13S428,104,428,112.18v28.5h12.67v-29c0-12.26-6.33-23.08-20.12-23.08a15.86,15.86,0,0,0-15,9.19V89.61H393.33v51.07H406ZM359.8,130.77c9.09,0,13.79-6.64,13.79-15.63s-4.7-15.62-13.79-15.62c-8.89,0-13.89,6.63-13.89,15.62s5,15.63,13.89,15.63m0,10.93c-16,0-26.86-11.65-26.86-26.56s10.83-26.55,26.86-26.55,26.76,11.64,26.76,26.55S375.73,141.7,359.8,141.7m-44.12-27.78c0-8.28,4.29-12.87,12.46-12.87a16.2,16.2,0,0,1,4.39.61h.21V89.81a14.32,14.32,0,0,0-5-.81c-6.13,0-10.21,3.78-12.56,9.9V89.61H303v51.07h12.66Zm-84.05,17C240.21,131,245,124.33,245,115s-4.8-15.83-13.38-15.83-13.18,6.64-13.18,15.83S223,131,231.63,131m57.9,10.73c-11.74,0-18.38-5.42-18.38-17.67V99.92H257.06v25.64c0,3.78,1.43,5.31,4.49,5.31a11,11,0,0,0,2.45-.2h.31v10a28.05,28.05,0,0,1-5.52.61c-6.94,0-11.23-2.66-13.07-8.48A19.08,19.08,0,0,1,229,141.7c-13,0-23.49-10.11-23.49-26.66C205.48,98.7,216,88.59,229,88.59c6.44,0,11.75,2.45,15.42,6.94V70.21h12.67v19.4h14.09V77.46h12.67V89.61H297.4V99.92H283.82v23.49c0,5.11,2.55,7.56,7.45,7.56a21.64,21.64,0,0,0,5.82-.71h.31v10.42a34.74,34.74,0,0,1-7.87,1m-216.2-1H85.89l2.35-44,.51-12H89l2.65,12,10.21,44h15.73l10.32-44,2.55-12h.2l.51,12,2.46,44h13.07l-4.29-70.46H121.53l-9.39,42.28-2,10.72h-.21l-2.14-10.72-9.4-42.28H77.52Zm127.35-26.45a37.56,37.56,0,0,1-.61,7H163.3c1.33,6.13,6.54,9.91,16.34,9.91h.24c.61,0,1.22,0,1.82,0l1-.07.75-.07A35.8,35.8,0,0,0,195,127.81l.83-.41h0c.73-.36,1.43-.76,2.12-1.17h.31v10.34a35.54,35.54,0,0,1-18.43,5.13v0l-.75,0c-18.48,0-28.59-10.52-28.59-25.84,0-16.45,10.41-27.27,25.53-27.27S200.68,99.31,200.68,114.22Zm-12.05-2.86C188,103.7,184,99.21,176,99.21c-7.46,0-12.05,4.7-12.87,12.15Z"/><path class="cls-1" d="M479,179.61V163.46h-10v16.15h-24v9.57h23.61c-1.34,13.73-6.59,29.57-26,40.16a37.24,37.24,0,0,1,7.29,7.61c22-12.47,27.53-31.53,28.79-47.77h22c-1.26,23.3-2.83,33.57-5.18,36a4.64,4.64,0,0,1-3.69,1.26c-2,0-6.66,0-11.6-.39a21.71,21.71,0,0,1,3.21,9.64,79.57,79.57,0,0,0,12.55-.15c3.37-.47,5.65-1.34,8-4.4,3.45-4.07,5-15.84,6.59-47,.16-1.26.23-4.48.23-4.48Zm-149.42,8.16V179.3H309.44a135.06,135.06,0,0,0,3.6-14.12l-8.78-1.8c-2.2,11.76-6,23.06-11.69,30.67V182.2H262.85v16.24h29.72v-1.18a47.38,47.38,0,0,1,4.55,6.59A53.05,53.05,0,0,0,301.2,198a90.77,90.77,0,0,0,5.81,18,38.67,38.67,0,0,1-15.77,13.72,37.57,37.57,0,0,1,5.81,7.22,48.78,48.78,0,0,0,14.82-12.63,39.27,39.27,0,0,0,13.49,12.08,35.49,35.49,0,0,1,6.12-7.84A36,36,0,0,1,317,216.09c3.92-7.85,6.51-17.26,8.07-28.32Zm-45.17,4.55H270.54v-4h13.88Zm31.84-4.55a86.15,86.15,0,0,1-4.39,18.59,95.68,95.68,0,0,1-5.18-18.59ZM296.5,213.26l-13.65,1.34v-.32A65.5,65.5,0,0,0,296,205l-5.1-4-1.57.39H261.12v6.82H280.5a42.33,42.33,0,0,1-6.12,3.3v3.92c-6.51.63-12.47,1.18-17.18,1.49l.94,7.76c4.71-.47,10.28-1,16.24-1.64v4.47c0,.86-.32,1.1-1.41,1.1s-4.87.07-8.24-.08a28.16,28.16,0,0,1,2.67,7.6c5.17,0,9-.07,11.84-1.25s3.61-3.22,3.61-7.14v-5.64l13.65-1.42Zm.62-41.49H283.55c-.94-2.9-2.27-6.19-3.45-8.94l-8.31,1.8c.86,2.2,1.8,4.71,2.51,7.14H258.93v7.77h38.19ZM143.25,217.65v-8.39H112.11c.24-1.33.47-2.67.63-4.08H145V197.1H113.76V193h24v-7.84h-24v-4h27.13v-8.23H126.46c1.73-2.27,3.53-4.86,5.26-7.61l-10-2.59a73.36,73.36,0,0,1-5.57,10.2H98.86l2.27-1a34.73,34.73,0,0,0-5.88-9.18L86.93,166a45.14,45.14,0,0,1,4.4,6.9h-14v8.23h26.82v4H80.89V193h23.22v4.15H74v8.08h28.86c-.15,1.41-.39,2.83-.62,4.08H76.35v8.39H98.86c-3.85,5-11.22,8.4-26.51,10.43a23.91,23.91,0,0,1,4.62,8.4c19.45-3.22,28.08-8.79,32.16-17.26,6.35,10.12,15.84,15.3,31.61,17.41a31.57,31.57,0,0,1,5.57-8.7c-13.1-1-22.2-4.24-27.77-10.28Z"/></svg>